<?xml version="1.0" encoding="UTF-8"?>
<!DOCTYPE svg PUBLIC "-//W3C//DTD SVG 1.1//EN" "http://www.w3.org/Graphics/SVG/1.1/DTD/svg11.dtd">
<svg xmlns="http://www.w3.org/2000/svg" version="1.1" width="64px" height="64px" style="shape-rendering:geometricPrecision; text-rendering:geometricPrecision; image-rendering:optimizeQuality; fill-rule:evenodd; clip-rule:evenodd" xmlns:xlink="http://www.w3.org/1999/xlink">
<g><path style="opacity:0.984" fill="#ededed" d="M 38.5,6.5 C 36.4727,6.33788 34.4727,6.50454 32.5,7C 34.0581,7.21003 35.3915,7.71003 36.5,8.5C 32.8333,8.5 29.1667,8.5 25.5,8.5C 24.6618,8.15829 24.3284,7.49162 24.5,6.5C 29.1667,5.16667 33.8333,5.16667 38.5,6.5 Z"/></g>
<g><path style="opacity:0.975" fill="#fafafa" d="M 38.5,6.5 C 38.8333,6.5 39.1667,6.5 39.5,6.5C 40.6602,8.20266 39.9935,8.86932 37.5,8.5C 37.1667,8.5 36.8333,8.5 36.5,8.5C 35.3915,7.71003 34.0581,7.21003 32.5,7C 34.4727,6.50454 36.4727,6.33788 38.5,6.5 Z"/></g>
<g><path style="opacity:0.988" fill="#ececec" d="M 24.5,6.5 C 24.3284,7.49162 24.6618,8.15829 25.5,8.5C 24.3285,9.34464 22.9952,10.0113 21.5,10.5C 20.1667,9.5 20.1667,8.5 21.5,7.5C 22.209,6.59603 23.209,6.26269 24.5,6.5 Z"/></g>
<g><path style="opacity:0.737" fill="#e3e3e3" d="M 39.5,6.5 C 41.674,6.74973 43.3406,7.74973 44.5,9.5C 43.7611,9.36899 43.0944,9.53566 42.5,10C 44.1412,11.129 45.1412,12.629 45.5,14.5C 43.0705,12.0551 40.4038,10.0551 37.5,8.5C 39.9935,8.86932 40.6602,8.20266 39.5,6.5 Z"/></g>
<g><path style="opacity:0.867" fill="#e2e2e2" d="M 21.5,7.5 C 20.1667,8.5 20.1667,9.5 21.5,10.5C 20.8333,11.8333 19.8333,12.8333 18.5,13.5C 18.631,12.7611 18.4643,12.0944 18,11.5C 17.3292,12.2524 16.4959,12.5858 15.5,12.5C 16.9108,10.086 18.9108,8.41938 21.5,7.5 Z"/></g>
<g><path style="opacity:0.988" fill="#f3f3f3" d="M 44.5,9.5 C 46.2624,10.2623 47.2624,11.5956 47.5,13.5C 47.5,14.8333 46.8333,15.5 45.5,15.5C 45.5,15.1667 45.5,14.8333 45.5,14.5C 45.1412,12.629 44.1412,11.129 42.5,10C 43.0944,9.53566 43.7611,9.36899 44.5,9.5 Z"/></g>
<g><path style="opacity:0.729" fill="#ededed" d="M 18.5,13.5 C 17.6373,15.4214 16.9707,17.4214 16.5,19.5C 15.1054,21.0544 14.4387,20.721 14.5,18.5C 15.0463,16.8653 15.3796,15.1986 15.5,13.5C 15.5,13.1667 15.5,12.8333 15.5,12.5C 16.4959,12.5858 17.3292,12.2524 18,11.5C 18.4643,12.0944 18.631,12.7611 18.5,13.5 Z"/></g>
<g><path style="opacity:0.799" fill="#e1e1e1" d="M 28.5,18.5 C 24.65,18.2993 23.65,16.4659 25.5,13C 26.448,12.5172 27.448,12.3505 28.5,12.5C 28.5,14.5 28.5,16.5 28.5,18.5 Z"/></g>
<g><path style="opacity:0.995" fill="#e5e5e5" d="M 34.5,12.5 C 38.0714,12.4077 39.2381,14.0743 38,17.5C 37,18.8333 36,18.8333 35,17.5C 34.5065,15.8659 34.3398,14.1992 34.5,12.5 Z"/></g>
<g><path style="opacity:0.908" fill="#dfdfdf" d="M 47.5,13.5 C 48.6737,14.5137 49.3404,15.847 49.5,17.5C 48.8826,17.3893 48.3826,17.056 48,16.5C 47.5045,18.4727 47.3379,20.4727 47.5,22.5C 47.5,22.8333 47.5,23.1667 47.5,23.5C 47.6716,24.4916 47.3382,25.1583 46.5,25.5C 46.7471,22.0613 46.4137,18.728 45.5,15.5C 46.8333,15.5 47.5,14.8333 47.5,13.5 Z"/></g>
<g><path style="opacity:0.759" fill="#e1e1e1" d="M 15.5,13.5 C 15.3796,15.1986 15.0463,16.8653 14.5,18.5C 14.4387,20.721 15.1054,21.0544 16.5,19.5C 16.5,21.1667 16.5,22.8333 16.5,24.5C 15.7784,24.0825 15.2784,23.4158 15,22.5C 14.5065,24.1341 14.3398,25.8008 14.5,27.5C 13.838,25.6965 13.5046,23.6965 13.5,21.5C 13.2865,18.4733 13.9532,15.8066 15.5,13.5 Z"/></g>
<g><path style="opacity:0.498" fill="#d9d9d9" d="M 24.5,19.5 C 22.9519,19.8212 22.2852,20.8212 22.5,22.5C 21.8333,23.5 21.1667,24.5 20.5,25.5C 20.6641,22.8127 20.4974,20.146 20,17.5C 19.7216,18.4158 19.2216,19.0825 18.5,19.5C 18.5,18.5 18.5,17.5 18.5,16.5C 20.7844,17.0292 22.7844,18.0292 24.5,19.5 Z"/></g>
<g><path style="opacity:0.337" fill="#d8d8d8" d="M 28.5,18.5 C 30.5,18.5 32.5,18.5 34.5,18.5C 34.5,19.8333 34.5,21.1667 34.5,22.5C 33.596,21.791 33.2627,20.791 33.5,19.5C 32.1667,19.5 30.8333,19.5 29.5,19.5C 29.5,20.5 29.5,21.5 29.5,22.5C 29.1667,22.5 28.8333,22.5 28.5,22.5C 28.5,21.1667 28.5,19.8333 28.5,18.5 Z"/></g>
<g><path style="opacity:0.999" fill="#f6f6f6" d="M 34.5,22.5 C 35.9587,22.5674 37.2921,22.2341 38.5,21.5C 37.4479,23.256 35.7812,23.9227 33.5,23.5C 32.209,23.2627 31.209,23.596 30.5,24.5C 28.2646,24.7947 26.2646,24.4614 24.5,23.5C 26.4147,23.7845 28.0813,23.4511 29.5,22.5C 29.5,21.5 29.5,20.5 29.5,19.5C 30.8333,19.5 32.1667,19.5 33.5,19.5C 33.2627,20.791 33.596,21.791 34.5,22.5 Z"/></g>
<g><path style="opacity:0.339" fill="#d7d7d7" d="M 41.5,18.5 C 42.3414,20.3792 42.6747,22.3792 42.5,24.5C 41.8333,23.8333 41.1667,23.1667 40.5,22.5C 40.6332,19.075 39.9665,18.7417 38.5,21.5C 38.5,20.5 38.5,19.5 38.5,18.5C 39.5,18.5 40.5,18.5 41.5,18.5 Z"/></g>
<g><path style="opacity:0.843" fill="#f7f7f7" d="M 49.5,17.5 C 49.5,18.1667 49.5,18.8333 49.5,19.5C 49.7148,21.1788 49.0481,22.1788 47.5,22.5C 47.3379,20.4727 47.5045,18.4727 48,16.5C 48.3826,17.056 48.8826,17.3893 49.5,17.5 Z"/></g>
<g><path style="opacity:0.882" fill="#f0f0f0" d="M 24.5,19.5 C 24.6941,21.9118 26.0274,22.9118 28.5,22.5C 28.8333,22.5 29.1667,22.5 29.5,22.5C 28.0813,23.4511 26.4147,23.7845 24.5,23.5C 23.8333,23.1667 23.1667,22.8333 22.5,22.5C 22.2852,20.8212 22.9519,19.8212 24.5,19.5 Z"/></g>
<g><path style="opacity:0.987" fill="#f9f9f9" d="M 40.5,22.5 C 40.6716,23.4916 40.3382,24.1583 39.5,24.5C 37.2646,24.7947 35.2646,24.4614 33.5,23.5C 35.7812,23.9227 37.4479,23.256 38.5,21.5C 39.9665,18.7417 40.6332,19.075 40.5,22.5 Z"/></g>
<g><path style="opacity:0.869" fill="#e9e9e9" d="M 45.5,26.5 C 44.7784,26.0825 44.2784,25.4158 44,24.5C 43.51,25.7932 43.3433,27.1266 43.5,28.5C 42.5655,27.4324 42.2322,26.099 42.5,24.5C 42.6747,22.3792 42.3414,20.3792 41.5,18.5C 41.8212,16.9519 42.8212,16.2852 44.5,16.5C 44.4595,19.8806 44.7929,23.2139 45.5,26.5 Z"/></g>
<g><path style="opacity:0.776" fill="#dfdfdf" d="M 49.5,19.5 C 50.4171,21.6618 50.4171,23.9952 49.5,26.5C 48.8333,25.5 48.1667,24.5 47.5,23.5C 47.5,23.1667 47.5,22.8333 47.5,22.5C 49.0481,22.1788 49.7148,21.1788 49.5,19.5 Z"/></g>
<g><path style="opacity:0.833" fill="#eaeaea" d="M 20.5,25.5 C 20.7373,26.791 20.404,27.791 19.5,28.5C 19.6495,27.448 19.4828,26.448 19,25.5C 18.0228,26.7736 17.1894,26.7736 16.5,25.5C 18.2798,24.0101 18.9465,22.0101 18.5,19.5C 19.2216,19.0825 19.7216,18.4158 20,17.5C 20.4974,20.146 20.6641,22.8127 20.5,25.5 Z"/></g>
<g><path style="opacity:0.565" fill="#dedede" d="M 22.5,22.5 C 23.1667,22.8333 23.8333,23.1667 24.5,23.5C 26.2646,24.4614 28.2646,24.7947 30.5,24.5C 28.3718,25.6291 26.0385,25.7958 23.5,25C 22.7476,24.3292 22.4142,23.4959 22.5,22.5 Z"/></g>
<g><path style="opacity:0.576" fill="#e1e1e1" d="M 30.5,24.5 C 31.209,23.596 32.209,23.2627 33.5,23.5C 35.2646,24.4614 37.2646,24.7947 39.5,24.5C 36.6377,25.6813 33.6377,25.6813 30.5,24.5 Z"/></g>
<g><path style="opacity:0.91" fill="#f0f0f0" d="M 16.5,24.5 C 16.5,24.8333 16.5,25.1667 16.5,25.5C 17.1894,26.7736 18.0228,26.7736 19,25.5C 19.4828,26.448 19.6495,27.448 19.5,28.5C 19.5,29.5 19.5,30.5 19.5,31.5C 18.5655,30.4324 18.2322,29.099 18.5,27.5C 16.8212,27.2852 15.8212,27.9519 15.5,29.5C 14.6618,29.1583 14.3284,28.4916 14.5,27.5C 14.3398,25.8008 14.5065,24.1341 15,22.5C 15.2784,23.4158 15.7784,24.0825 16.5,24.5 Z"/></g>
<g><path style="opacity:0.912" fill="#e9e9e9" d="M 47.5,23.5 C 48.1667,24.5 48.8333,25.5 49.5,26.5C 49.0679,27.7095 48.4013,28.7095 47.5,29.5C 47.2178,28.2223 46.5511,27.2223 45.5,26.5C 46.1667,26.5 46.5,26.1667 46.5,25.5C 47.3382,25.1583 47.6716,24.4916 47.5,23.5 Z"/></g>
<g><path style="opacity:0.98" fill="#e5e5e5" d="M 19.5,31.5 C 20.4013,32.2905 21.0679,33.2905 21.5,34.5C 20.1667,34.5 19.5,35.1667 19.5,36.5C 17.412,34.6644 16.0787,32.3311 15.5,29.5C 15.8212,27.9519 16.8212,27.2852 18.5,27.5C 18.2322,29.099 18.5655,30.4324 19.5,31.5 Z"/></g>
<g><path style="opacity:0.979" fill="#f1f1f1" d="M 45.5,26.5 C 46.5511,27.2223 47.2178,28.2223 47.5,29.5C 47.3404,31.153 46.6737,32.4863 45.5,33.5C 45.0113,32.0048 44.3446,30.6715 43.5,29.5C 43.5,29.1667 43.5,28.8333 43.5,28.5C 43.3433,27.1266 43.51,25.7932 44,24.5C 44.2784,25.4158 44.7784,26.0825 45.5,26.5 Z"/></g>
<g><path style="opacity:0.718" fill="#e2e2e2" d="M 43.5,29.5 C 44.3446,30.6715 45.0113,32.0048 45.5,33.5C 45.573,35.0269 44.9063,36.0269 43.5,36.5C 43.5912,34.3023 42.9245,33.9689 41.5,35.5C 42.1667,33.5 42.8333,31.5 43.5,29.5 Z"/></g>
<g><path style="opacity:0.878" fill="#eeeeee" d="M 21.5,34.5 C 22.6005,35.6049 23.2671,36.9382 23.5,38.5C 22.2921,37.7659 20.9587,37.4326 19.5,37.5C 19.5,37.1667 19.5,36.8333 19.5,36.5C 19.5,35.1667 20.1667,34.5 21.5,34.5 Z"/></g>
<g><path style="opacity:0.8" fill="#e4e4e4" d="M 43.5,36.5 C 42.9213,39.3311 41.588,41.6644 39.5,43.5C 39.5912,41.3023 38.9245,40.9689 37.5,42.5C 38.0787,39.6689 39.412,37.3356 41.5,35.5C 42.9245,33.9689 43.5912,34.3023 43.5,36.5 Z"/></g>
<g><path style="opacity:0.804" fill="#dcdcdc" d="M 19.5,37.5 C 20.9587,37.4326 22.2921,37.7659 23.5,38.5C 24.3382,38.8417 24.6716,39.5084 24.5,40.5C 23.0755,38.9689 22.4088,39.3023 22.5,41.5C 21.0256,40.5637 20.0256,39.2303 19.5,37.5 Z"/></g>
<g><path style="opacity:0.963" fill="#e9e9e9" d="M 39.5,43.5 C 39.2503,45.674 38.2503,47.3406 36.5,48.5C 36.5912,46.3023 35.9245,45.9689 34.5,47.5C 34.7497,45.326 35.7497,43.6594 37.5,42.5C 38.9245,40.9689 39.5912,41.3023 39.5,43.5 Z"/></g>
<g><path style="opacity:0.931" fill="#eeeeee" d="M 24.5,40.5 C 26.0828,42.6626 27.4161,44.9959 28.5,47.5C 27.2921,46.7659 25.9587,46.4326 24.5,46.5C 23.5592,44.9505 22.8925,43.2838 22.5,41.5C 22.4088,39.3023 23.0755,38.9689 24.5,40.5 Z"/></g>
<g><path style="opacity:0.851" fill="#e9e9e9" d="M 24.5,46.5 C 25.9587,46.4326 27.2921,46.7659 28.5,47.5C 29.3382,47.8417 29.6716,48.5084 29.5,49.5C 28.0755,47.9689 27.4088,48.3023 27.5,50.5C 26.5116,49.205 25.5116,47.8717 24.5,46.5 Z"/></g>
<g><path style="opacity:0.894" fill="#efefef" d="M 36.5,48.5 C 36.3404,50.153 35.6737,51.4863 34.5,52.5C 33.8333,51.8333 33.1667,51.1667 32.5,50.5C 32.9321,49.2905 33.5987,48.2905 34.5,47.5C 35.9245,45.9689 36.5912,46.3023 36.5,48.5 Z"/></g>
<g><path style="opacity:0.98" fill="#f4f4f4" d="M 29.5,49.5 C 30.3382,49.8417 30.6716,50.5084 30.5,51.5C 31.1667,52.1667 31.8333,52.8333 32.5,53.5C 31.1667,53.5 29.8333,53.5 28.5,53.5C 27.8902,52.609 27.5569,51.609 27.5,50.5C 27.4088,48.3023 28.0755,47.9689 29.5,49.5 Z"/></g>
<g><path style="opacity:0.8" fill="#e3e3e3" d="M 32.5,50.5 C 33.1667,51.1667 33.8333,51.8333 34.5,52.5C 34.573,54.0269 33.9063,55.0269 32.5,55.5C 32.5,54.8333 32.5,54.1667 32.5,53.5C 31.8333,52.8333 31.1667,52.1667 30.5,51.5C 31.1667,51.1667 31.8333,50.8333 32.5,50.5 Z"/></g>
<g><path style="opacity:0.991" fill="#ededed" d="M 28.5,53.5 C 29.8333,53.5 31.1667,53.5 32.5,53.5C 32.5,54.1667 32.5,54.8333 32.5,55.5C 32.6309,56.3764 32.2975,57.0431 31.5,57.5C 30.016,56.5331 29.016,55.1998 28.5,53.5 Z"/></g>
</svg>
