<?xml version="1.0" encoding="UTF-8" standalone="no"?>
<svg
   width="24px"
   height="24px"
   viewBox="0 0 24 24"
   version="1.1"
   id="svg22"
   sodipodi:docname="position_icon_24.svg"
   inkscape:version="1.4 (86a8ad7, 2024-10-11)"
   xmlns:inkscape="http://www.inkscape.org/namespaces/inkscape"
   xmlns:sodipodi="http://sodipodi.sourceforge.net/DTD/sodipodi-0.dtd"
   xmlns:xlink="http://www.w3.org/1999/xlink"
   xmlns="http://www.w3.org/2000/svg"
   xmlns:svg="http://www.w3.org/2000/svg">
  <sodipodi:namedview
     id="namedview22"
     pagecolor="#505050"
     bordercolor="#eeeeee"
     borderopacity="1"
     inkscape:showpageshadow="0"
     inkscape:pageopacity="0"
     inkscape:pagecheckerboard="0"
     inkscape:deskcolor="#505050"
     inkscape:zoom="23.776466"
     inkscape:cx="9.6734309"
     inkscape:cy="10.956212"
     inkscape:window-width="1920"
     inkscape:window-height="1009"
     inkscape:window-x="-8"
     inkscape:window-y="-8"
     inkscape:window-maximized="1"
     inkscape:current-layer="surface1"
     showgrid="false" />
  <defs
     id="defs4">
    <filter
       id="alpha"
       filterUnits="objectBoundingBox"
       x="0"
       y="0"
       width="1"
       height="1">
      <feColorMatrix
         type="matrix"
         in="SourceGraphic"
         values="0 0 0 0 1 0 0 0 0 1 0 0 0 0 1 0 0 0 1 0"
         id="feColorMatrix1" />
    </filter>
    <mask
       id="mask0">
      <g
         filter="url(#alpha)"
         id="g1">
        <rect
           x="0"
           y="0"
           width="24"
           height="24"
           style="fill:rgb(0%,0%,0%);fill-opacity:0.133333;stroke:none;"
           id="rect1" />
      </g>
    </mask>
    <clipPath
       id="clip1">
      <rect
         x="0"
         y="0"
         width="24"
         height="24"
         id="rect2" />
    </clipPath>
    <g
       id="surface5"
       clip-path="url(#clip1)">
      <path
         style=" stroke:none;fill-rule:evenodd;fill:rgb(72.156864%,72.156864%,72.156864%);fill-opacity:1;"
         d="M 12.617188 7.390625 C 12.582031 7.414062 12.542969 7.4375 12.507812 7.460938 C 12.488281 7.460938 12.476562 7.445312 12.472656 7.425781 C 12.515625 7.390625 12.5625 7.378906 12.617188 7.390625 Z M 12.617188 7.390625 "
         id="path2" />
    </g>
    <mask
       id="mask1">
      <g
         filter="url(#alpha)"
         id="g3">
        <rect
           x="0"
           y="0"
           width="24"
           height="24"
           style="fill:rgb(0%,0%,0%);fill-opacity:0.933333;stroke:none;"
           id="rect3" />
      </g>
    </mask>
    <clipPath
       id="clip2">
      <rect
         x="0"
         y="0"
         width="24"
         height="24"
         id="rect4" />
    </clipPath>
    <g
       id="surface8"
       clip-path="url(#clip2)">
      <path
         style=" stroke:none;fill-rule:evenodd;fill:rgb(65.882355%,65.882355%,65.882355%);fill-opacity:1;"
         d="M 5.464844 10.292969 C 5.53125 10.324219 5.605469 10.335938 5.683594 10.328125 C 5.652344 10.351562 5.617188 10.367188 5.574219 10.367188 C 5.519531 10.359375 5.480469 10.335938 5.464844 10.292969 Z M 5.464844 10.292969 "
         id="path4" />
    </g>
  </defs>
  <g
     id="surface1">
    <path
       style="fill:#000000;fill-opacity:1;fill-rule:evenodd;stroke:#000000;stroke-width:0.825;stroke-opacity:1;stroke-dasharray:none"
       d="m 18.915355,5.3083973 c -0.0035,0.093036 0.01754,0.1711874 0.06663,0.2418957 0.298104,1.1499355 0.336683,2.314758 0.112228,3.4944658 -0.07364,0.3684261 -0.18237,0.7256879 -0.326162,1.0717842 -2.118295,3.922436 -4.23659,7.841149 -6.354884,11.759863 -0.164834,0.364704 -0.340189,0.721965 -0.522561,1.075507 C 11.68369,22.512777 11.47677,22.073644 11.26985,21.634509 9.2076734,17.75301 7.1560139,13.867791 5.1113682,9.978849 4.6975297,8.7768122 4.588809,7.5450037 4.7852072,6.2759808 4.8202777,6.048971 4.8693778,5.8331251 4.9325053,5.6210012 4.9780983,5.5502931 4.9991404,5.46842 4.9956335,5.3791046 5.1394249,4.7650613 5.3779084,4.1993971 5.7145909,3.6821118 c 0.045593,-0.014885 0.066636,-0.048379 0.063128,-0.1042 C 6.5107049,2.4056469 7.5102314,1.5980859 8.7762979,1.1589524 8.8955402,1.151511 9.004261,1.1142941 9.1024601,1.0547512 9.1690952,1.0063722 9.2462514,0.98032146 9.330422,0.98404305 9.4180992,0.98776875 9.4952567,0.9654362 9.5583834,0.91705673 10.0599,0.77936242 10.568432,0.69376827 11.090992,0.656553 c 1.602749,-0.15258025 3.145878,0.0893155 4.629386,0.725688 1.620285,0.8001174 2.68294,2.1100766 3.194977,3.9261563 z M 16.078103,2.4726326 c 0.01754,0.048379 0.04911,0.070709 0.0982,0.070709 0.01754,0.048379 0.04911,0.070707 0.0982,0.066985 1.50455,1.2355307 2.244551,2.8729799 2.216494,4.9123474 0.02454,0.8224467 -0.122748,1.6039563 -0.438387,2.3519718 -0.08066,0.1711892 -0.203414,0.2642242 -0.375263,0.2753902 -0.02103,-0.04466 -0.05612,-0.07816 -0.0982,-0.100479 C 17.28455,9.331314 17.116208,8.5832977 17.074123,7.7980662 17.025023,7.120758 16.982939,6.4397279 16.94436,5.7586977 16.835638,5.565181 16.67782,5.5019161 16.4709,5.5689022 c -0.07015,0.037215 -0.129762,0.089316 -0.178863,0.1563024 -0.05612,1.1350497 0.01754,2.2663783 0.227963,3.3902642 0.08768,0.5656645 0.284076,1.0866692 0.585686,1.5555752 0.105215,0.122809 0.22095,0.230733 0.343698,0.327492 -1.834218,3.416312 -3.682466,6.825182 -5.541234,10.222889 C 10.094973,17.812554 8.2817962,14.403683 6.4616065,10.998534 6.8228381,10.741751 7.0648287,10.388211 7.1980993,9.9453552 7.4015112,9.2680467 7.5312749,8.5758522 7.5873888,7.8687723 7.6540233,7.1914633 7.6855879,6.5104331 7.6855879,5.8294038 7.5698525,5.5540143 7.3769621,5.4795847 7.1139286,5.602394 7.0472933,5.6619377 6.9981942,5.7363663 6.9701373,5.8294038 6.9526012,6.9681748 6.8473883,8.0957819 6.6580048,9.2159462 6.6124117,9.2866473 6.5913693,9.3685268 6.5948765,9.4615633 6.5177204,9.7071805 6.409,9.937913 6.2687156,10.150036 6.1985738,10.15746 6.1319381,10.146219 6.0723174,10.116536 5.8899471,9.9267473 5.7636913,9.6960159 5.6970558,9.4243484 5.1990467,7.5561684 5.4024585,5.7773028 6.3178143,4.098917 7.1279571,2.8559448 8.2291903,2.0558273 9.6250197,1.6948446 11.452224,1.2445462 13.254879,1.322697 15.036491,1.93674 c 0.361232,0.1525813 0.711945,0.3312123 1.041612,0.5358926 z m 0,0"
       id="path5" />
    <path
       style="fill:#0c0c0c;fill-opacity:1;fill-rule:evenodd;stroke:#000000;stroke-width:1.225;stroke-opacity:1;stroke-dasharray:none"
       d="M 9.5268202,4.512001 C 9.5724143,4.4450151 9.596962,4.3631421 9.5934511,4.2701054 9.7337345,3.8570214 9.9792326,3.767706 10.326436,3.9947169 10.571935,4.3854714 10.635063,4.8134403 10.522835,5.2749042 10.456204,5.5689001 10.28786,5.751253 10.017813,5.8294038 9.7617959,5.7363667 9.6039762,5.5540143 9.5443547,5.2749042 9.4882461,5.0181217 9.484738,4.7613402 9.5268202,4.512001 Z m 0,0"
       id="path11" />
    <path
       style="fill:#0c0c0c;fill-opacity:1;fill-rule:evenodd;stroke:#000000;stroke-width:1.225;stroke-opacity:1;stroke-dasharray:none"
       d="m 14.352605,4.3073197 c -0.0035,0.089316 0.01754,0.1711883 0.06313,0.2418965 0.08767,0.42797 0,0.8150034 -0.259526,1.1573784 -0.231468,0.1637457 -0.431375,0.1265305 -0.603223,-0.1228086 -0.280568,-0.5023995 -0.280568,-1.0122412 0,-1.5183619 0.249005,-0.2865534 0.487489,-0.2753888 0.718957,0.033493 0.03506,0.066986 0.06313,0.1339743 0.08065,0.2084027 z m 0,0"
       id="path12" />
    <path
       style="fill:#0c0c0c;fill-opacity:1;fill-rule:evenodd;stroke:#000000;stroke-width:0.325;stroke-opacity:1;stroke-dasharray:none"
       d="m 12.949761,6.7634944 c 0,0.089315 0,0.1823519 0,0.2753886 -0.105214,0.1711885 -0.259527,0.2753888 -0.455924,0.3126041 -0.04911,-0.011164 -0.09118,0 -0.129765,0.033493 0.0035,0.018607 0.01403,0.033494 0.03157,0.033494 0.308626,0.4019183 0.701423,0.6735865 1.174882,0.8150022 0.690902,0.085595 1.153839,-0.2232884 1.38531,-0.9192047 0.03506,-0.1935157 0.05612,-0.3907547 0.06313,-0.5879926 0.01403,-0.085594 0.05261,-0.1563024 0.115734,-0.2084027 0.0491,0.00373 0.08066,-0.018606 0.0982,-0.066987 0.238484,-0.096758 0.406823,-0.014885 0.505023,0.2418966 C 15.783511,7.8724934 15.274982,8.639118 14.22285,8.9926572 13.574026,9.1043017 12.988339,8.9554433 12.462272,8.5423591 12.29393,8.3935 12.129098,8.2371976 11.971277,8.077175 11.483789,8.6614463 10.870044,8.9852148 10.130044,9.0447588 9.0568676,8.9442783 8.4150669,8.3339566 8.2081471,7.2100715 8.187105,7.0277184 8.187105,6.841645 8.2081471,6.659292 8.3063463,6.4471682 8.464166,6.3727387 8.6781003,6.4322824 8.7482413,6.47322 8.8078633,6.5253197 8.8604692,6.5885848 8.88502,6.9905042 8.9832185,7.370094 9.1515598,7.731077 c 0.3892887,0.4949569 0.8732712,0.6400947 1.4519442,0.4316921 0.361232,-0.1823531 0.676872,-0.4279699 0.943412,-0.744295 0.02104,0 0.03157,-0.014887 0.03506,-0.033494 -0.03857,-0.033493 -0.08416,-0.044658 -0.129763,-0.033493 -0.273554,-0.037215 -0.448911,-0.1935168 -0.52256,-0.4689056 0.07716,-0.2307318 0.227962,-0.3833121 0.455925,-0.4502991 0.49801,-0.1488591 0.974976,-0.1042012 1.434408,0.1376943 0.06313,0.052102 0.10872,0.115366 0.129764,0.1935178 z m 0,0"
       id="path17" />
    <use
       xlink:href="#surface5"
       mask="url(#mask0)"
       id="use20"
       transform="matrix(0.96655315,0,0,1.019362,-0.25025843,-1.3475535)" />
  </g>
</svg>
